<?xml version="1.0" encoding="UTF-8" standalone="no"?>
<svg width="477px" height="315px" viewBox="0 0 477 315" version="1.1" xmlns="http://www.w3.org/2000/svg" xmlns:xlink="http://www.w3.org/1999/xlink" xmlns:sketch="http://www.bohemiancoding.com/sketch/ns">
    <title>bird</title>
    <description>Created with Sketch (http://www.bohemiancoding.com/sketch)</description>
    <defs></defs>
    <g id="Page-1" stroke="none" stroke-width="1" fill="none" fill-rule="evenodd" sketch:type="MSPage">
        <g id="logo_front" sketch:type="MSLayerGroup" transform="translate(5.000000, 2.000000)" stroke="rgb(205, 29, 20)" stroke-width="3">
            <g id="bird" transform="translate(61.000000, 14.000000)" sketch:type="MSShapeGroup">
                <path d="M0,40 L52,0 L104,6 L124,30 L130,74 L174,94 L306,52 L278,94 L316,94 L268,152 L291,184 L392,178 L348,212 L410,282 L316,236 L244,226 L190,250 L218,274 L192,298 L146,276 L94,292 L100,268 L74,252 L90,232 L42,200 L18,142 L38,86 L14,68 L20,52 L0,40 Z" id="outline" stroke-linejoin="round"></path>
                <g id="triangles" stroke-linejoin="bevel">
                    <path d="M316,94 L174,94 L178,160 L316,94 Z" id="Path-27"></path>
                    <path d="M146,134 L106,206 L178,160 L146,134 Z" id="Path-28"></path>
                    <path d="M178,202 L190,250 L244,226 L178,202 Z" id="Path-29"></path>
                    <path d="M216,190 L244,226 L178,202 L216,190 Z" id="Path-30"></path>
                    <path d="M178,202 L158,232 L106,206 L178,202 Z" id="Path-31"></path>
                    <path d="M158,232 L192,298 L190,250 L158,232 Z" id="Path-32"></path>
                    <path d="M146,276 L158,232 L108,236 L146,276 Z" id="Path-33"></path>
                    <path d="M174,94 L306,52 L244,94 L174,94 Z" id="Path-33"></path>
                    <path d="M306,52 L278,94 L244,94 L306,52 Z" id="Path-34"></path>
                    <path d="M316,94 L268,152 L178,160 L316,94 Z" id="Path-35"></path>
                    <path d="M190,250 L218,274 L192,298 L190,250 Z" id="Path-36"></path>
                    <path d="M158,232 L146,276 L192,298 L158,232 Z" id="Path-37"></path>
                    <path d="M94,292 L146,276 L108,236 L94,292 Z" id="Path-38"></path>
                    <path d="M90,232 L100,268 L74,252 L90,232 Z" id="Path-39"></path>
                    <path d="M90,232 L108,236 L100,268 L90,232 Z" id="Path-40"></path>
                    <path d="M410,282 L348,212 L316,235.947368 L410,282 Z" id="Path-41"></path>
                    <path d="M291,184 L392,178 L348,212 L291,184 Z" id="Path-42"></path>
                    <path d="M244,226 L314,216 L316,236 L244,226 Z" id="Path-43"></path>
                    <path d="M244,226 L268,152 L314,216 L244,226 Z" id="Path-44"></path>
                    <path d="M216,190 L244,226 L268,152 L216,190 Z" id="Path-45"></path>
                    <path d="M42,200 L66,156 L18,142 L42,200 Z" id="Path-46"></path>
                    <path d="M66,156 L106,206 L42,200 L66,156 Z" id="Path-47"></path>
                    <path d="M66,156 L146,134 L106,206 L66,156 Z" id="Path-48"></path>
                    <path d="M178,160 L216,190 L268,152 L178,160 Z" id="Path-49"></path>
                    <path d="M291,184 L314,216 L348,212 L291,184 Z" id="Path-50"></path>
                    <path d="M178,202 L158,232 L190,250 L178,202 Z" id="Path-51"></path>
                    <path d="M38,86 L66,156 L18,142 L38,86 Z" id="Path-52"></path>
                    <path d="M20,52 L0,40 L52,0 L20,52 Z" id="Path-53"></path>
                    <path d="M14,68 L38,86 L48,58 L14,68 Z" id="Path-55"></path>
                    <path d="M80,94 L66,156 L38,86 L80,94 Z" id="Path-56"></path>
                    <path d="M78,24 L52,0 L48,58 L78,24 Z" id="Path-57"></path>
                    <path d="M52,0 L78,24 L104,6 L52,0 Z" id="Path-58"></path>
                    <path d="M78,24 L124,30 L104,6 L78,24 Z" id="Path-59"></path>
                    <path d="M78,24 L94,56 L124,30 L78,24 Z" id="Path-60"></path>
                    <path d="M124,30 L94,55.6666667 L130,74 L124,30 Z" id="Path-61"></path>
                    <path d="M94,56 L38,86 L80,94 L94,56 Z" id="Path-62"></path>
                    <path d="M130,74 L146,134 L174,94 L130,74 Z" id="Path-63"></path>
                    <path d="M146,134 L178,160 L174,94 L146,134 Z" id="Path-64"></path>
                    <path d="M130,74 L66,156 L146,134 L130,74 Z" id="Path-65"></path>
                    <path d="M94,56 L80,94 L130,74 L94,56 Z" id="Path-66"></path>
                    <path d="M178,160 L106,206 L178,202 L178,160 Z" id="Path-44"></path>
                    <path d="M178,160 L178,202 L216,190 L178,160 Z" id="Path-45"></path>
                    <path d="M20,52 L48,58 L52,0 L20,52 Z" id="Path-108"></path>
                    <path d="M14,68 L48,58 L20,52 L14,68 Z" id="Path-54"></path>
                    <path d="M80,94 L66,156 L130,74 L80,94 Z" id="Path-46"></path>
                    <path d="M78,24 L48,58 L94,56.1578947 L78,24 Z" id="Path-47"></path>
                    <path d="M314,216 L316,236 L348,212 L314,216 Z" id="Path-48"></path>
                    <path d="M38,86 L48.1666667,57.8125 L94,56 L38,86 Z" id="Path-49"></path>
                    <path d="M42,200 L106,206 L90,232 L42,200 Z" id="Path-50"></path>
                    <path d="M106,206 L90,232 L108,236 L106,206 Z" id="Path-51"></path>
                    <path d="M106,206 L108,236 L158,232 L106,206 Z" id="Path-52"></path>
                </g>
            </g>
        </g>
    </g>
</svg>
