<svg width="410" height="106" viewBox="0 0 410 106" fill="none" xmlns="http://www.w3.org/2000/svg">
<path d="M188.998 71.648C188.998 72.376 189.414 73 190.142 73H192.222C193.158 73 193.574 72.48 193.574 71.648V42.0079C194.094 41.1759 198.67 34.832 207.094 34.832C214.894 34.832 219.158 39.824 219.158 49.392V71.648C219.158 72.48 219.678 73 220.406 73H222.382C223.11 73 223.734 72.376 223.734 71.648V49.392C223.734 46.584 223.422 44.088 222.798 41.904C224.15 40.24 228.726 34.832 236.526 34.832C244.326 34.832 248.486 39.824 248.486 49.392V71.648C248.486 72.48 249.006 73 249.63 73H251.71C252.438 73 253.062 72.376 253.062 71.648V49.392C253.062 37.7439 248.174 30.36 236.838 30.36C228.31 30.36 222.486 36.2879 221.238 37.952C218.638 33.0639 213.958 30.36 207.614 30.36C199.19 30.36 194.406 35.352 193.262 36.912L192.742 32.4399C192.638 31.8159 192.222 31.4 191.598 31.4H190.35C189.622 31.4 188.998 32.024 188.998 32.752V71.648Z" fill="#F2463A"/>
<path d="M265.198 52.2C265.198 64.784 275.286 74.04 287.038 74.04C295.67 74.04 301.806 68.528 303.366 66.032C303.782 65.408 303.574 64.8879 303.054 64.368L301.91 63.328C301.286 62.704 300.662 62.704 299.934 63.536C298.79 64.784 294.734 69.672 286.934 69.672C277.678 69.672 269.878 62.184 269.878 52.096C269.878 42.216 277.574 34.832 287.038 34.832C293.59 34.832 297.958 38.472 298.998 39.616C299.622 40.2399 300.454 40.552 301.182 39.824L302.222 38.784C302.846 38.264 302.95 37.536 302.43 36.912C300.558 34.52 295.15 30.36 287.038 30.36C275.286 30.36 265.198 39.7199 265.198 52.2Z" fill="#F2463A"/>
<path d="M311.788 69.464C311.788 75.7039 317.82 78.512 319.9 78.928C317.716 80.28 313.348 83.712 313.348 89.848C313.348 96.92 319.484 105.24 333.628 105.24C346.316 105.24 354.844 97.128 354.844 88.288C354.844 79.032 348.396 74.976 339.452 74.976H324.372C320.316 74.976 316.156 73.832 316.156 68.944C316.156 64.056 320.628 61.768 321.46 61.456C322.812 62.912 326.556 65.2 332.796 65.2C343.404 65.2 350.06 57.192 350.06 47.936C350.06 39.304 345.588 35.664 343.612 34.624L351.1 34.104C351.724 34 352.036 33.376 352.036 32.856V31.712C352.036 30.984 351.516 30.36 350.684 30.36C336.228 30.36 336.228 30.36 333.628 30.36C322.396 30.36 315.428 37.952 315.428 47.936C315.428 52.928 317.508 56.88 318.652 58.336C317.508 58.96 311.788 62.4959 311.788 69.464ZM332.9 61.144C324.164 61.144 319.692 55.112 319.692 47.832C319.692 40.344 324.892 34.52 332.9 34.52C339.764 34.52 345.692 39.096 345.692 47.832C345.692 55.216 340.7 61.144 332.9 61.144ZM317.924 89.328C317.924 82.256 325.308 79.344 326.348 79.24H339.452C347.148 79.24 350.06 83.608 350.06 88.392C350.06 95.464 342.884 100.976 333.524 100.976C323.436 100.976 317.924 95.048 317.924 89.328Z" fill="#F2463A"/>
<path d="M366.379 11.016C368.355 11.016 369.915 9.45595 369.915 7.58395C369.915 5.60795 368.355 3.94395 366.379 3.94395C364.403 3.94395 362.844 5.60795 362.844 7.58395C362.844 9.45595 364.403 11.016 366.379 11.016ZM364.091 71.648C364.091 72.376 364.508 73 365.236 73H367.315C368.251 73 368.668 72.48 368.668 71.648V32.752C368.668 32.024 368.043 31.4 367.315 31.4H365.444C364.716 31.4 364.091 32.024 364.091 32.752V71.648Z" fill="#F2463A"/>
<path d="M384.506 71.648C384.506 72.376 384.922 73 385.65 73H387.73C388.666 73 389.082 72.48 389.082 71.648V1.55195C389.082 0.823952 388.458 0.199951 387.73 0.199951H385.858C385.13 0.199951 384.506 0.823952 384.506 1.55195V71.648Z" fill="#F2463A"/>
<path d="M404.92 71.648C404.92 72.376 405.336 73 406.064 73H408.144C409.08 73 409.496 72.48 409.496 71.648V1.55195C409.496 0.823952 408.872 0.199951 408.144 0.199951H406.272C405.544 0.199951 404.92 0.823952 404.92 1.55195V71.648Z" fill="#F2463A"/>
<path d="M0.903992 71.648C0.903992 72.376 1.31999 73 2.04799 73H4.02399C4.95999 73 5.37599 72.48 5.37599 71.648V42.112C5.79199 41.592 11.616 34.832 20.248 34.832C28.152 34.832 32.624 39.824 32.624 49.392V71.648C32.624 72.376 33.248 73 33.976 73H35.848C36.576 73 37.2 72.376 37.2 71.648V49.392C37.2 37.016 31.272 30.36 20.456 30.36C12.24 30.36 6.72799 35.664 5.37599 37.016V1.55195C5.37599 0.823952 4.75199 0.199951 4.02399 0.199951H2.35999C1.52799 0.199951 0.903992 0.823952 0.903992 1.55195V71.648Z" fill="#F89790"/>
<path d="M49.0682 60.208C49.0682 68.736 54.9962 74.04 62.6922 74.04C69.3482 74.04 74.4442 70.608 77.1482 68.112L77.5642 71.856C77.7722 72.584 78.0842 73 78.8122 73H80.0602C80.7882 73 81.4122 72.376 81.4122 71.648V48.56C81.4122 37.952 80.8922 30.36 68.2042 30.36C59.5722 30.36 54.2682 33.2719 53.9562 33.4799C53.4362 33.688 53.0202 34.104 53.3322 35.04L53.8522 36.288C54.0602 37.016 54.5802 37.432 55.4122 37.1199C56.3482 36.8079 61.0282 34.312 67.8922 34.312C76.1082 34.312 77.0442 38.888 77.0442 48.04C75.9002 47.624 71.3242 46.168 66.5402 46.168C55.6202 46.168 49.0682 52.2 49.0682 60.208ZM53.3322 60.104C53.3322 53.9679 58.6362 49.9119 66.5402 49.9119C71.5322 49.9119 75.6922 51.472 77.0442 52.096V63.536C75.0682 66.136 69.5562 69.984 63.2122 69.984C57.4922 69.984 53.3322 66.1359 53.3322 60.104Z" fill="#F89790"/>
<path d="M93.659 52.2C93.659 64.784 103.747 74.04 115.499 74.04C124.131 74.04 130.267 68.528 131.827 66.032C132.243 65.408 132.035 64.8879 131.515 64.368L130.371 63.328C129.747 62.704 129.123 62.704 128.395 63.536C127.251 64.784 123.195 69.672 115.395 69.672C106.139 69.672 98.339 62.184 98.339 52.096C98.339 42.216 106.035 34.832 115.499 34.832C122.051 34.832 126.419 38.472 127.459 39.616C128.083 40.2399 128.915 40.552 129.643 39.824L130.683 38.784C131.307 38.264 131.411 37.536 130.891 36.912C129.019 34.52 123.611 30.36 115.499 30.36C103.747 30.36 93.659 39.7199 93.659 52.2Z" fill="#F89790"/>
<path d="M144.513 71.648C144.513 72.376 144.929 73 145.657 73H147.633C148.569 73 148.985 72.48 148.985 71.648V51.472L173.009 72.168C173.945 72.896 174.465 73 175.089 73H178.313C179.145 73 179.665 71.96 178.833 71.232L153.769 49.704L176.129 33.2719C176.961 32.7519 176.857 31.4 175.817 31.4H172.801C172.281 31.4 171.657 31.6079 171.137 32.0239L148.985 48.144V1.55195C148.985 0.823952 148.361 0.199951 147.633 0.199951H145.865C145.137 0.199951 144.513 0.823952 144.513 1.55195V71.648Z" fill="#F89790"/>
</svg>
