<svg width="8644" height="1660" viewBox="0 0 8644 1660" fill="none" xmlns="http://www.w3.org/2000/svg">
<path d="M165.04 485.688C188.08 466.104 219.184 446.52 258.352 426.936C298.672 407.352 347.056 397.56 403.504 397.56C463.408 397.56 518.704 410.808 569.392 437.304C621.232 462.648 664.432 497.208 698.992 540.984C725.488 574.392 745.072 613.56 757.744 658.488C771.568 702.264 778.48 759.288 778.48 829.56V1227H614.32V820.92C614.32 769.08 609.712 729.336 600.496 701.688C592.432 674.04 580.912 651 565.936 632.568C546.352 608.376 521.584 589.368 491.632 575.544C462.832 560.568 431.728 553.08 398.32 553.08C344.176 553.08 297.52 565.176 258.352 589.368C220.336 612.408 189.232 638.904 165.04 668.856V1227H0.880002V0.119934H165.04V485.688ZM1648.27 1152.7C1614.86 1182.65 1576.85 1205.69 1534.22 1221.82C1491.6 1236.79 1446.1 1244.28 1397.71 1244.28C1360.85 1244.28 1324.56 1239.1 1288.85 1228.73C1253.14 1219.51 1221.46 1206.84 1193.81 1190.71C1131.6 1153.85 1081.49 1103.74 1043.47 1040.38C1005.46 975.864 986.448 902.712 986.448 820.92C986.448 739.128 1005.46 665.976 1043.47 601.464C1082.64 536.952 1133.33 486.264 1195.54 449.4C1223.18 433.272 1253.71 420.6 1287.12 411.384C1320.53 402.168 1356.24 397.56 1394.26 397.56C1440.34 397.56 1484.69 405.048 1527.31 420.024C1571.09 433.848 1611.41 456.888 1648.27 489.144V414.84H1807.25V1227H1648.27V1152.7ZM1643.09 668.856C1617.74 635.448 1584.91 607.8 1544.59 585.912C1505.42 564.024 1461.07 553.08 1411.54 553.08C1372.37 553.08 1336.66 560.568 1304.4 575.544C1272.14 589.368 1244.5 608.952 1221.46 634.296C1199.57 658.488 1182.29 686.712 1169.62 718.968C1156.94 751.224 1150.61 785.208 1150.61 820.92C1150.61 857.784 1156.94 892.344 1169.62 924.6C1183.44 956.856 1202.45 985.08 1226.64 1009.27C1250.83 1033.46 1279.06 1053.05 1311.31 1068.02C1344.72 1081.85 1381.01 1088.76 1420.18 1088.76C1461.65 1088.76 1501.97 1078.97 1541.14 1059.38C1581.46 1038.65 1615.44 1009.85 1643.09 972.984V668.856ZM2827.58 1054.2C2810.3 1081.85 2788.99 1107.77 2763.64 1131.96C2738.3 1155 2709.5 1175.16 2677.24 1192.44C2646.14 1208.57 2612.15 1221.24 2575.29 1230.46C2539.58 1239.67 2503.29 1244.28 2466.43 1244.28C2404.22 1244.28 2346.62 1233.91 2293.63 1213.18C2240.63 1191.29 2194.55 1161.34 2155.39 1123.32C2117.37 1085.3 2087.42 1040.38 2065.53 988.536C2043.64 936.696 2032.7 880.824 2032.7 820.92C2032.7 761.016 2043.07 705.144 2063.8 653.304C2085.69 601.464 2115.07 556.536 2151.93 518.52C2189.95 480.504 2234.87 451.128 2286.71 430.392C2338.55 408.504 2395 397.56 2456.06 397.56C2527.48 397.56 2593.15 413.688 2653.05 445.944C2714.11 478.2 2763.64 520.824 2801.66 573.816L2680.7 675.768C2657.66 644.664 2627.13 616.44 2589.11 591.096C2552.25 565.752 2507.9 553.08 2456.06 553.08C2419.19 553.08 2384.63 559.992 2352.38 573.816C2321.27 586.488 2294.2 604.92 2271.16 629.112C2248.12 653.304 2229.69 682.104 2215.87 715.512C2203.19 747.768 2196.86 782.904 2196.86 820.92C2196.86 861.24 2203.19 898.104 2215.87 931.512C2229.69 963.768 2248.7 991.416 2272.89 1014.46C2297.08 1037.5 2325.31 1055.93 2357.56 1069.75C2390.97 1082.42 2427.26 1088.76 2466.43 1088.76C2520.57 1088.76 2566.65 1076.66 2604.67 1052.47C2642.68 1027.13 2674.94 997.176 2701.43 962.616L2827.58 1054.2ZM3804.37 1227H3584.91L3182.29 829.56V1227H3018.13V0.119934H3182.29V725.88L3520.98 414.84H3752.53L3346.45 781.176L3804.37 1227Z" fill="#F56F65"/>
<path d="M4127.17 414.84V492.6C4135.23 483.384 4146.75 473.592 4161.73 463.224C4177.86 451.704 4196.29 441.336 4217.02 432.12C4237.76 421.752 4260.8 413.688 4286.14 407.928C4311.49 401.016 4337.98 397.56 4365.63 397.56C4425.54 397.56 4479.68 410.232 4528.06 435.576C4577.6 459.768 4619.07 492.024 4652.48 532.344C4689.34 495.48 4731.39 463.8 4778.62 437.304C4827.01 410.808 4888.06 397.56 4961.79 397.56C5020.54 397.56 5074.69 409.656 5124.22 433.848C5174.91 458.04 5216.96 491.448 5250.37 534.072C5275.71 565.176 5294.14 602.04 5305.66 644.664C5318.34 687.288 5324.67 743.16 5324.67 812.28V1227H5160.51V786.36C5160.51 744.888 5156.48 712.056 5148.42 687.864C5140.35 662.52 5128.83 641.208 5113.86 623.928C5095.42 602.04 5072.96 584.76 5046.46 572.088C5019.97 559.416 4991.74 553.08 4961.79 553.08C4903.04 553.08 4853.5 565.752 4813.18 591.096C4774.02 615.288 4741.18 641.208 4714.69 668.856C4719.3 688.44 4722.75 710.328 4725.06 734.52C4727.36 757.56 4728.51 783.48 4728.51 812.28V1227H4564.35V786.36C4564.35 744.888 4560.32 712.056 4552.26 687.864C4544.19 662.52 4532.67 641.208 4517.7 623.928C4499.26 602.04 4476.22 584.76 4448.58 572.088C4420.93 559.416 4391.55 553.08 4360.45 553.08C4309.76 553.08 4264.83 565.752 4225.66 591.096C4186.5 615.288 4155.39 641.208 4132.35 668.856V1227H3968.19V414.84H4127.17ZM6327.45 1054.2C6310.17 1081.85 6288.86 1107.77 6263.52 1131.96C6238.17 1155 6209.37 1175.16 6177.12 1192.44C6146.01 1208.57 6112.03 1221.24 6075.16 1230.46C6039.45 1239.67 6003.16 1244.28 5966.3 1244.28C5904.09 1244.28 5846.49 1233.91 5793.5 1213.18C5740.51 1191.29 5694.43 1161.34 5655.26 1123.32C5617.24 1085.3 5587.29 1040.38 5565.4 988.536C5543.52 936.696 5532.57 880.824 5532.57 820.92C5532.57 761.016 5542.94 705.144 5563.68 653.304C5585.56 601.464 5614.94 556.536 5651.8 518.52C5689.82 480.504 5734.75 451.128 5786.59 430.392C5838.43 408.504 5894.88 397.56 5955.93 397.56C6027.36 397.56 6093.02 413.688 6152.92 445.944C6213.98 478.2 6263.52 520.824 6301.53 573.816L6180.57 675.768C6157.53 644.664 6127 616.44 6088.99 591.096C6052.12 565.752 6007.77 553.08 5955.93 553.08C5919.07 553.08 5884.51 559.992 5852.25 573.816C5821.15 586.488 5794.08 604.92 5771.04 629.112C5748 653.304 5729.56 682.104 5715.74 715.512C5703.07 747.768 5696.73 782.904 5696.73 820.92C5696.73 861.24 5703.07 898.104 5715.74 931.512C5729.56 963.768 5748.57 991.416 5772.76 1014.46C5796.96 1037.5 5825.18 1055.93 5857.44 1069.75C5890.84 1082.42 5927.13 1088.76 5966.3 1088.76C6020.44 1088.76 6066.52 1076.66 6104.54 1052.47C6142.56 1027.13 6174.81 997.176 6201.31 962.616L6327.45 1054.2ZM7105.53 1156.15C7037.56 1214.9 6955.77 1244.28 6860.15 1244.28C6823.29 1244.28 6787 1239.1 6751.29 1228.73C6715.57 1219.51 6683.89 1206.84 6656.25 1190.71C6594.04 1153.85 6543.93 1103.74 6505.91 1040.38C6467.89 975.864 6448.89 902.712 6448.89 820.92C6448.89 739.128 6467.89 665.976 6505.91 601.464C6545.08 536.952 6595.77 486.264 6657.97 449.4C6685.62 433.272 6716.15 420.6 6749.56 411.384C6782.97 402.168 6818.68 397.56 6856.69 397.56C6902.77 397.56 6947.13 405.048 6989.75 420.024C7033.53 433.848 7073.85 456.888 7110.71 489.144V414.84H7269.69V1192.44C7269.69 1253.5 7265.65 1304.76 7257.59 1346.23C7249.53 1388.86 7237.43 1426.3 7221.3 1458.55C7187.89 1521.91 7141.24 1570.87 7081.33 1605.43C7021.43 1641.14 6951.16 1659 6870.52 1659C6817.53 1659 6769.72 1652.66 6727.09 1639.99C6684.47 1628.47 6646.45 1613.5 6613.05 1595.06C6579.64 1576.63 6551.41 1556.47 6528.37 1534.58C6505.33 1512.7 6487.48 1491.38 6474.81 1470.65L6595.77 1358.33C6625.72 1397.5 6660.85 1431.48 6701.17 1460.28C6742.65 1489.08 6796.79 1503.48 6863.61 1503.48C6954.61 1503.48 7020.28 1472.38 7060.6 1410.17C7075.57 1387.13 7086.52 1359.48 7093.43 1327.22C7101.49 1294.97 7105.53 1252.92 7105.53 1201.08V1156.15ZM7105.53 668.856C7080.18 635.448 7047.35 607.8 7007.03 585.912C6967.86 564.024 6923.51 553.08 6873.97 553.08C6834.81 553.08 6799.09 560.568 6766.84 575.544C6734.58 589.368 6706.93 608.952 6683.89 634.296C6662.01 658.488 6644.73 686.712 6632.05 718.968C6619.38 751.224 6613.05 785.208 6613.05 820.92C6613.05 857.784 6619.38 892.344 6632.05 924.6C6645.88 956.856 6664.89 985.08 6689.08 1009.27C6713.27 1033.46 6741.49 1053.05 6773.75 1068.02C6807.16 1081.85 6843.45 1088.76 6882.61 1088.76C6924.09 1088.76 6964.41 1078.97 7003.57 1059.38C7043.89 1038.65 7077.88 1009.85 7105.53 972.984V668.856ZM7564.26 414.84H7728.42V1227H7564.26V414.84ZM7538.34 126.264C7538.34 96.3119 7548.7 70.9679 7569.44 50.2319C7590.18 28.3439 7615.52 17.3999 7645.47 17.3999C7675.42 17.3999 7700.77 28.3439 7721.5 50.2319C7743.39 70.9679 7754.34 96.3119 7754.34 126.264C7754.34 156.216 7743.39 181.56 7721.5 202.296C7700.77 223.032 7675.42 233.4 7645.47 233.4C7615.52 233.4 7590.18 223.032 7569.44 202.296C7548.7 181.56 7538.34 156.216 7538.34 126.264ZM8021.57 0.119934H8185.73V1227H8021.57V0.119934ZM8478.88 0.119934H8643.04V1227H8478.88V0.119934Z" fill="#F2463A"/>
</svg>
